<svg xmlns="http://www.w3.org/2000/svg" viewBox="0 0 1800 360" preserveAspectRatio="xMidYMid meet" role="img" aria-label="Joy Corner coffee banner">
  <defs>
    <linearGradient id="bg" x1="0" x2="1">
      <stop offset="0" stop-color="#17100b"/>
      <stop offset="0.48" stop-color="#050403"/>
      <stop offset="1" stop-color="#18100a"/>
    </linearGradient>
    <radialGradient id="light" cx="50%" cy="22%" r="62%">
      <stop offset="0" stop-color="#f7dc99" stop-opacity="0.34"/>
      <stop offset="0.4" stop-color="#d8a952" stop-opacity="0.12"/>
      <stop offset="1" stop-color="#000" stop-opacity="0"/>
    </radialGradient>
    <radialGradient id="cream" cx="44%" cy="30%" r="72%">
      <stop offset="0" stop-color="#fffdf7"/>
      <stop offset="0.62" stop-color="#f7ead3"/>
      <stop offset="1" stop-color="#d9bc84"/>
    </radialGradient>
    <linearGradient id="gold" x1="0" x2="1" y1="0" y2="1">
      <stop offset="0" stop-color="#fff0b8"/>
      <stop offset="0.35" stop-color="#d8a952"/>
      <stop offset="0.7" stop-color="#7d461e"/>
      <stop offset="1" stop-color="#f7dc99"/>
    </linearGradient>
    <filter id="shadow" x="-24%" y="-24%" width="148%" height="148%">
      <feDropShadow dx="0" dy="14" stdDeviation="13" flood-color="#000" flood-opacity="0.45"/>
      <feDropShadow dx="0" dy="0" stdDeviation="8" flood-color="#d8a952" flood-opacity="0.25"/>
    </filter>
  </defs>
  <rect width="1800" height="360" rx="30" fill="url(#bg)"/>
  <rect width="1800" height="360" rx="30" fill="url(#light)"/>
  <rect x="10" y="10" width="1780" height="340" rx="26" fill="none" stroke="url(#gold)" stroke-width="5"/>
  <path d="M1180 12c44 124 40 232-4 335" fill="none" stroke="#f7dc99" stroke-opacity="0.12" stroke-width="2"/>
  <text x="1325" y="278" fill="#d8a952" fill-opacity="0.1" font-family="Georgia, 'Times New Roman', serif" font-size="310" font-weight="700">J</text>
  <g transform="translate(126 86)" filter="url(#shadow)">
    <ellipse cx="112" cy="172" rx="116" ry="18" fill="#000" opacity="0.42"/>
    <rect x="64" y="92" width="118" height="80" rx="15" fill="#0e0906" stroke="url(#gold)" stroke-width="5"/>
    <path d="M183 108c43-3 57 44 15 59" fill="none" stroke="#d8a952" stroke-linecap="round" stroke-width="12"/>
    <ellipse cx="123" cy="92" rx="58" ry="13" fill="#2b180e"/>
    <ellipse cx="123" cy="88" rx="48" ry="6" fill="#fff0b8" opacity="0.28"/>
    <g fill="#6a3518" stroke="#d8a952" stroke-opacity="0.45" stroke-width="2">
      <ellipse cx="-24" cy="166" rx="18" ry="10" transform="rotate(-18 -24 166)"/>
      <ellipse cx="16" cy="180" rx="18" ry="10" transform="rotate(17 16 180)"/>
      <ellipse cx="204" cy="185" rx="18" ry="10" transform="rotate(-15 204 185)"/>
      <ellipse cx="244" cy="168" rx="18" ry="10" transform="rotate(14 244 168)"/>
    </g>
  </g>
  <g transform="translate(752 42)" filter="url(#shadow)">
    <circle cx="148" cy="92" r="86" fill="#050403" stroke="url(#gold)" stroke-width="8"/>
    <circle cx="148" cy="92" r="67" fill="url(#cream)" stroke="#1a1009" stroke-width="4"/>
    <text x="119" y="132" fill="#120c08" font-family="Georgia, 'Times New Roman', serif" font-size="118" font-weight="700">J</text>
    <path d="M105 154c28 19 70 19 98 0" fill="none" stroke="#120c08" stroke-linecap="round" stroke-width="8"/>
    <text x="148" y="246" fill="#fffdf7" font-family="Arial, Helvetica, sans-serif" font-size="70" font-weight="900" letter-spacing="9" text-anchor="middle">JOY CORNER</text>
    <path d="M-68 276h153" stroke="url(#gold)" stroke-width="4"/>
    <path d="M211 276h153" stroke="url(#gold)" stroke-width="4"/>
    <text x="148" y="291" fill="#f7dc99" font-family="Arial, Helvetica, sans-serif" font-size="32" font-weight="800" letter-spacing="8" text-anchor="middle">Coffee / Est.2016</text>
  </g>
  <g transform="translate(1400 206)" opacity="0.9">
    <path d="M0 85c106 36 226 35 328 0" fill="none" stroke="#000" stroke-opacity="0.5" stroke-width="23" stroke-linecap="round"/>
    <g fill="#7b421f" stroke="#d8a952" stroke-opacity="0.32" stroke-width="2">
      <ellipse cx="20" cy="55" rx="19" ry="11" transform="rotate(-16 20 55)"/>
      <ellipse cx="62" cy="68" rx="19" ry="11" transform="rotate(12 62 68)"/>
      <ellipse cx="106" cy="52" rx="19" ry="11" transform="rotate(-12 106 52)"/>
      <ellipse cx="148" cy="73" rx="19" ry="11" transform="rotate(18 148 73)"/>
      <ellipse cx="190" cy="54" rx="19" ry="11" transform="rotate(-16 190 54)"/>
      <ellipse cx="236" cy="68" rx="19" ry="11" transform="rotate(14 236 68)"/>
      <ellipse cx="280" cy="55" rx="19" ry="11" transform="rotate(-12 280 55)"/>
    </g>
  </g>
</svg>
